<?xml version="1.0" ?><svg height="32" id="svg8" version="1.1" viewBox="0 0 24 24" width="32" xmlns="http://www.w3.org/2000/svg" xmlns:cc="http://creativecommons.org/ns#" xmlns:dc="http://purl.org/dc/elements/1.1/" xmlns:rdf="http://www.w3.org/1999/02/22-rdf-syntax-ns#" xmlns:svg="http://www.w3.org/2000/svg"><defs id="defs2"><rect height="7.0346723" id="rect2504" width="7.9207187" x="-1.1008456" y="289.81766"/></defs><g id="g1439" style="display:inline" transform="translate(-9.7655e-4,0.0156175)"><g id="g1409" style="stroke-width:1.22622" transform="matrix(0.81517505,0,0,0.81585773,2.217835,5.3233516)"><path d="m 12,87.693359 c -1.395629,0 -2.5371094,1.142265 -2.5371094,2.539063 0,0.752444 0.3314855,1.430289 0.8554684,1.896484 -1.4270627,0.633014 -2.4362095,2.043619 -2.4843746,3.69336 l -0.015625,0.513672 h 8.3632816 l -0.01563,-0.513672 c -0.04875,-1.65259 -1.062997,-3.057653 -2.488282,-3.689454 0.526026,-0.466284 0.859375,-1.146257 0.859375,-1.90039 0,-1.396798 -1.14148,-2.539063 -2.537109,-2.539063 z m 0,1 c 0.855415,0 1.537109,0.682932 1.537109,1.539063 0,0.85613 -0.681694,1.539062 -1.537109,1.539062 -0.855415,0 -1.537109,-0.682932 -1.537109,-1.539062 0,-0.856131 0.681694,-1.539063 1.537109,-1.539063 z m 3.050781,6.642579 H 8.9472656 c 0.2854813,-1.429865 1.4695404,-2.525212 3.0289294,-2.543857 1.55939,-0.01865 2.783069,1.086679 3.074586,2.543857 z" id="path575" style="color:#000000;font-style:normal;font-variant:normal;font-weight:normal;font-stretch:normal;font-size:medium;line-height:normal;font-family:sans-serif;font-variant-ligatures:normal;font-variant-position:normal;font-variant-caps:normal;font-variant-numeric:normal;font-variant-alternates:normal;font-variant-east-asian:normal;font-feature-settings:normal;font-variation-settings:normal;text-indent:0;text-align:start;text-decoration:none;text-decoration-line:none;text-decoration-style:solid;text-decoration-color:#000000;letter-spacing:normal;word-spacing:normal;text-transform:none;writing-mode:lr-tb;direction:ltr;text-orientation:mixed;dominant-baseline:auto;baseline-shift:baseline;text-anchor:start;white-space:normal;shape-padding:0;shape-margin:0;inline-size:0;clip-rule:nonzero;display:inline;overflow:visible;visibility:visible;opacity:1;isolation:auto;mix-blend-mode:normal;color-interpolation:sRGB;color-interpolation-filters:linearRGB;solid-color:#000000;solid-opacity:1;vector-effect:none;fill:#000000;fill-opacity:1;fill-rule:nonzero;stroke:none;stroke-width:1;stroke-linecap:butt;stroke-linejoin:miter;stroke-miterlimit:4;stroke-dasharray:none;stroke-dashoffset:0;stroke-opacity:1;paint-order:fill markers stroke;color-rendering:auto;image-rendering:auto;shape-rendering:auto;text-rendering:auto;enable-background:accumulate;stop-color:#000000;stop-opacity:1" transform="matrix(1.2267304,0,0,1.2257039,-2.7206856,-104.59911)"/></g><path d="m 11.5,81.484375 v 1.371094 C 6.8385383,83.108123 3.1012773,86.840335 2.8417969,91.5 H 1.4863281 v 1 h 1.3535157 c 0.245821,4.672829 3.9892601,8.41868 8.6601562,8.67188 v 1.34179 h 1 v -1.34179 c 4.670896,-0.2532 8.414335,-3.999051 8.660156,-8.67188 h 1.355469 v -1 H 21.158203 C 20.898723,86.840335 17.161461,83.108123 12.5,82.855469 v -1.371094 z m 0,2.371094 v 1.25 h 1 v -1.25 c 4.119587,0.248607 7.400328,3.526947 7.65625,7.644531 h -1.261719 v 1 h 1.263672 C 19.915724,96.630895 16.629059,99.922667 12.5,100.17188 v -1.279302 h -1 v 1.279302 C 7.3709411,99.922667 4.0842758,96.630895 3.8417969,92.5 h 1.265625 v -1 H 3.84375 C 4.0996722,87.382416 7.3804123,84.104076 11.5,83.855469 Z" id="path1411" style="color:#000000;font-style:normal;font-variant:normal;font-weight:normal;font-stretch:normal;font-size:medium;line-height:normal;font-family:sans-serif;font-variant-ligatures:normal;font-variant-position:normal;font-variant-caps:normal;font-variant-numeric:normal;font-variant-alternates:normal;font-variant-east-asian:normal;font-feature-settings:normal;font-variation-settings:normal;text-indent:0;text-align:start;text-decoration:none;text-decoration-line:none;text-decoration-style:solid;text-decoration-color:#000000;letter-spacing:normal;word-spacing:normal;text-transform:none;writing-mode:lr-tb;direction:ltr;text-orientation:mixed;dominant-baseline:auto;baseline-shift:baseline;text-anchor:start;white-space:normal;shape-padding:0;shape-margin:0;inline-size:0;clip-rule:nonzero;display:inline;overflow:visible;visibility:visible;opacity:1;isolation:auto;mix-blend-mode:normal;color-interpolation:sRGB;color-interpolation-filters:linearRGB;solid-color:#000000;solid-opacity:1;vector-effect:none;fill:#000000;fill-opacity:1;fill-rule:nonzero;stroke:none;stroke-linecap:butt;stroke-linejoin:miter;stroke-miterlimit:4;stroke-dasharray:none;stroke-dashoffset:0;stroke-opacity:1;paint-order:fill markers stroke;color-rendering:auto;image-rendering:auto;shape-rendering:auto;text-rendering:auto;enable-background:accumulate;stop-color:#000000;stop-opacity:1" transform="translate(0,-80.01464)"/><g id="g1419"/><g id="g1425" transform="rotate(90,12,11.985357)"/></g></svg>